<svg width="40" height="40" viewBox="0 0 40 40" fill="none" xmlns="http://www.w3.org/2000/svg">
<g clip-path="url(#clip0_5920_33938)">
<path d="M29.8727 13.7206C25.2259 11.1216 17.7678 6.94825 6.19965 0.470973C5.41973 -0.0441062 4.52238 -0.111606 3.74707 0.150816L23.5948 19.9985L29.8727 13.7206Z" fill="#32BBFF"/>
<path d="M3.74711 0.150879C3.6018 0.200098 3.46039 0.259473 3.32516 0.331192C2.46899 0.794318 1.83984 1.68549 1.83984 2.8126V37.1845C1.83984 38.3117 2.46891 39.2028 3.32516 39.6659C3.46016 39.7375 3.60149 39.7971 3.74664 39.8467L23.5948 19.9986L3.74711 0.150879Z" fill="#32BBFF"/>
<path d="M23.5952 19.9985L3.74707 39.8466C4.52262 40.111 5.41996 40.0487 6.20012 39.5261C17.4187 33.244 24.7928 29.1201 29.4933 26.499C29.6242 26.4255 29.7524 26.3536 29.8791 26.2825L23.5952 19.9985Z" fill="#32BBFF"/>
<path d="M1.83984 19.9985V37.1845C1.83984 38.3116 2.46891 39.2028 3.32516 39.6658C3.46016 39.7375 3.60149 39.7971 3.74664 39.8466L23.5948 19.9985H1.83984Z" fill="#2C9FD9"/>
<path d="M6.19973 0.470931C5.27356 -0.140632 4.18137 -0.12321 3.3252 0.331165L23.2936 20.2996L29.8727 13.7206C25.226 11.1216 17.7679 6.94821 6.19973 0.470931Z" fill="#29CC5E"/>
<path d="M23.2937 19.6973L3.3252 39.6657C4.18145 40.12 5.27356 40.1462 6.19973 39.5259C17.4183 33.2439 24.7924 29.1199 29.4929 26.4988C29.6238 26.4253 29.752 26.3534 29.8787 26.2823L23.2937 19.6973Z" fill="#D93F21"/>
<path d="M38.16 19.9984C38.16 19.046 37.6794 18.085 36.727 17.552C36.727 17.552 34.9458 16.5582 29.4862 13.5044L22.9922 19.9984L29.4925 26.4988C34.8922 23.467 36.7269 22.4447 36.7269 22.4447C37.6794 21.9118 38.16 20.9507 38.16 19.9984Z" fill="#FFD500"/>
<path d="M36.727 22.4449C37.6794 21.912 38.16 20.9509 38.16 19.9985H22.9922L29.4925 26.4989C34.8923 23.4672 36.727 22.4449 36.727 22.4449Z" fill="#FFAA00"/>
</g>
<defs>
<clipPath id="clip0_5920_33938">
<rect width="40" height="40" fill="white"/>
</clipPath>
</defs>
</svg>
