<svg width="1440" height="422" viewBox="0 0 1440 422" fill="none" xmlns="http://www.w3.org/2000/svg">
<path d="M1440 384.443L1432.6 422H9.75366L0 393.827C5.73511 388.203 80.1819 343.157 80.1819 343.157L111.671 269.922L183.226 266.162L195.028 254.124L234.761 213.594L410.997 198.014L489.541 191.063L517.011 180.704L604.054 147.881L732.878 146L1033.48 200.447L1276.95 243.578L1296.71 247.071L1319.75 251.15L1440 384.443Z" fill="#CEE3EF"/>
<path d="M1440 384.443V422H831.185L910.087 403.617L998.384 398.58L1102.07 403.617L1036.79 363.339L1175.03 408.653L1336.32 375.914L1251.83 302.897L1296.71 247.074L1319.75 251.153L1440 384.443Z" fill="#A9C3DA"/>
<path d="M255.421 422H0V393.827C5.73511 388.203 80.1819 343.157 80.1819 343.157L111.671 269.922L199.687 350.746L255.421 422Z" fill="#A9C3DA"/>
<path d="M80.1819 343.158L140.926 373.917L0 393.828L80.1819 343.158Z" fill="white"/>
<path d="M1251.83 302.897L910.087 338.154L384.014 335.636L364.812 411.171L307.884 315.297L183.226 266.163L195.027 254.124L234.76 213.595L410.997 198.015L702.719 280.232L1251.83 302.897Z" fill="#C5D9EB"/>
<path d="M591.356 227.346L517.01 180.706L489.541 191.065L234.761 213.595L195.027 254.125L303.371 315.489L345.612 375.914L357.133 300.379L518.403 312.965L913.926 320.526L591.356 227.346Z" fill="white"/>
<path d="M1276.95 243.581L1251.83 302.897L913.926 320.526L591.356 227.346L489.541 191.064L604.053 147.882L732.877 146.001L1033.48 200.449L1276.95 243.581Z" fill="#C5D9EB"/>
<path d="M1319.75 251.152L1251.83 302.897L948.488 295.341C948.488 295.341 633.597 227.345 618.237 217.272C602.877 207.198 602.877 156.831 604.054 147.882L732.878 146.001L1033.48 200.449L1296.71 247.072L1319.75 251.152Z" fill="white"/>
<path d="M183.226 266.163L299.526 325.557L345.605 375.922L322.566 307.928L261.126 277.71L234.76 213.595L183.226 266.163Z" fill="#A9C3DA"/>
<path d="M1211.75 45.8034C1213.14 45.9135 1213.76 46.5704 1212.78 47.7755C1211.09 49.8516 1209.31 51.878 1206.02 51.1764C1206.99 54.313 1208.92 56.5914 1210.9 58.7298C1216.91 65.2024 1221.14 73.1216 1227.65 79.2198C1231.74 83.049 1231.42 88.7375 1232.2 93.7362C1234.69 109.515 1232.99 124.883 1226.88 139.739C1226.06 141.719 1224.68 143 1223.14 143.934C1219.63 146.082 1218.86 149.251 1218.8 152.974C1218.75 156.341 1218.47 159.705 1219.16 163.442C1221.61 160.488 1224.04 157.525 1226.51 154.581C1228.53 152.165 1230.92 150.225 1233.83 148.981C1238.83 146.841 1242.89 148.297 1245.13 153.311C1247.92 159.558 1247.4 165.994 1245.77 172.432C1241.46 189.328 1234.85 205.512 1230.13 222.288C1229.23 225.494 1229.36 228.247 1230.28 231.3C1234.71 246.024 1237.23 260.993 1234.53 276.352C1233.17 284.08 1230.46 291.255 1225.38 297.58C1219.82 304.505 1212.42 305.91 1204.41 305.919C1186.3 305.95 1168.29 303.873 1150.24 303.141C1139.54 302.703 1128.73 301.742 1117.78 303.306C1106.22 304.961 1097.85 297.65 1091.33 288.672C1086.28 281.706 1084.23 273.671 1082.68 265.235C1080.83 255.134 1083.82 246.351 1087.94 237.657C1088.97 235.509 1089.36 233.837 1088.24 231.53C1086.47 227.896 1087.87 224.227 1089.49 220.908C1095.58 208.457 1101.58 195.959 1107.68 183.518C1110.34 178.079 1108.86 172.802 1109.4 167.473C1109.66 165 1109.01 162.46 1109.04 159.948C1109.13 154.06 1107.71 149.072 1102.39 145.587C1098.26 142.879 1098.61 138.101 1098.28 133.912C1097.25 120.608 1097.55 107.323 1099.19 94.0651C1099.58 90.93 1101.2 88.3419 1103.42 86.4903C1114.75 77.0749 1124.24 65.6357 1136.54 57.2443C1146.73 50.291 1158.18 48.3087 1169.84 46.4795C1173.63 45.8799 1177.34 45.0261 1180.91 43.5766C1182.23 43.0409 1183.53 42.5305 1182.59 40.7508C1179.38 34.7044 1183.46 31.3205 1187.29 27.8967C1188.7 26.6349 1190.3 25.5703 1191.81 24.421C1194.61 25.8812 1192.03 27.1158 1191.66 28.4513C1190.2 30.1472 1189.71 32.4658 1188.3 34.1467C1186.18 36.6727 1186.02 37.2967 1187.88 40.1599C1188.67 40.5587 1189.36 41.0411 1189.46 42.0187C1187.78 45.7535 1183.78 45.9675 1180.82 47.7796C1175.69 50.2957 1170.12 50.8275 1164.55 51.3232C1152.89 52.3672 1142.82 57.3125 1133.6 64.2549C1132.42 65.0568 1131.04 65.5269 1129.98 66.5218C1129.67 66.8084 1129.52 66.863 1129.7 66.8636C1131.29 65.5669 1133.24 64.9934 1134.98 64.0075C1144.47 59.2906 1154.6 56.9699 1165.07 55.9067C1180.67 55.8484 1196 57.1936 1210.3 64.5369C1206.61 60.5508 1203.75 56.0478 1201.43 51.1985C1200.85 49.9998 1200.2 48.8328 1199.86 47.5397C1199.51 46.2284 1199.17 44.6681 1200.46 43.8723C1201.98 42.9457 1202.96 44.3979 1203.59 45.4656C1205.13 48.1245 1206.88 48.6013 1209.27 46.5449C1209.94 45.9741 1210.78 45.6 1211.74 45.8385L1211.75 45.8034Z" fill="#030304"/>
<path d="M1211.75 45.803C1211.11 46.4202 1210.53 47.1019 1209.85 47.6539C1206.29 50.5399 1205.05 50.2685 1202.83 46.254C1202.42 45.5009 1201.82 44.8538 1201.2 44.0274C1200.46 47.42 1201.29 50.0587 1205.53 56.258C1208.01 59.8941 1210.87 63.2657 1214.27 67.6639C1209.68 65.6356 1206.16 63.9498 1202.54 62.4993C1190.54 57.6863 1177.89 57.0194 1165.19 56.7955C1166.11 52.7704 1169.65 51.9254 1172.75 50.5129C1175.4 49.3083 1178.78 49.6764 1180.69 46.8541C1183.5 45.2566 1186.29 43.6675 1189.1 42.07C1190.28 40.502 1191.85 39.4355 1193.63 38.657C1194.33 38.3913 1194.91 37.9945 1195.29 37.3191C1197.72 32.9294 1201.44 31.3092 1206.3 32.2109C1207.32 32.3989 1208.33 32.2925 1209.34 32.1595C1211.66 33.3798 1210.84 35.3508 1210.36 37.0723C1209.84 38.8991 1209.29 40.6706 1209.93 42.559C1208.8 44.8967 1210.75 44.2521 1211.8 44.4864C1211.78 44.9225 1211.78 45.359 1211.76 45.804L1211.75 45.803Z" fill="#0F9199"/>
<path d="M1209.05 32.5537C1208.86 34.0948 1208.06 33.7667 1206.88 33.5346C1200.85 32.3386 1199.42 32.9756 1196.36 38.4285C1195.56 39.839 1194.56 39.6249 1193.42 39.5907C1191.05 38.6619 1189.46 41.0465 1187.31 41.0476C1185.19 41.2195 1184.59 40.6791 1185.11 38.2731C1185.99 34.1834 1188.71 31.3066 1190.76 27.9749C1191.96 28.3155 1192.92 28.5451 1193.85 27.0972C1194.89 25.4941 1196.44 24.1777 1198.69 25.2781C1199.79 26.496 1201.14 25.7657 1202.41 25.7892C1204.9 25.8328 1207.45 25.6753 1209.31 27.8516C1209.72 28.8275 1211.26 29.115 1210.93 30.5414C1210.59 31.1026 1210.04 31.1803 1209.45 31.1845C1208.75 31.2003 1208.14 30.7488 1207.42 30.8264C1208.03 31.3406 1208.81 31.694 1209.05 32.5537Z" fill="#35B7C5"/>
<path d="M1209.05 32.5541C1207.56 31.4941 1205.43 31.7367 1204.11 30.0793C1206.56 28.5966 1208.68 30.591 1210.92 30.5324C1212.03 31.6703 1213.2 32.7404 1214.22 33.9446C1216.46 36.6055 1216.43 36.6214 1213.06 37.3865C1213 37.401 1213.14 38.3715 1213.19 38.8998C1212.73 40.9526 1212.37 43.1 1209.56 43.1281C1208.1 42.1762 1207.6 41.2583 1208.39 39.2942C1209.2 37.2604 1210.97 34.9747 1209.03 32.5443L1209.05 32.5541Z" fill="#19383B"/>
<path d="M1198.88 25.5026C1195.17 25.0729 1194.4 28.6064 1192.23 30.5679C1191.02 30.1019 1192.12 28.226 1190.75 27.9746C1190.7 26.6616 1193.55 26.2255 1191.82 24.4035C1193.71 23.9783 1195.63 23.7866 1197.46 22.9664C1198.62 22.4489 1199.83 22.9056 1198.95 24.6862C1199.16 24.8847 1199.22 25.0752 1199.13 25.2487C1199.04 25.4222 1198.96 25.5069 1198.88 25.5026Z" fill="#263F43"/>
<path d="M1198.88 25.5025C1198.87 25.226 1198.91 24.9514 1198.96 24.6866C1201.49 23.8768 1204.03 24.2442 1206.5 24.8399C1207.93 25.184 1209.69 25.6252 1209.31 27.8517C1205.65 26.5597 1201.97 26.4164 1197.94 27.9489C1198.37 26.8305 1198.63 26.1667 1198.88 25.5025Z" fill="#3E4649"/>
<path d="M1209.58 43.1379C1211.55 42.3965 1211.54 39.9264 1213.2 38.9096C1215.14 41.3844 1212.74 42.754 1211.79 44.4952C1211.54 44.6335 1211.25 44.725 1211.04 44.9012C1209.86 45.9077 1208.33 47.7336 1207.13 46.0028C1206.1 44.5033 1209.05 44.42 1209.59 43.1384L1209.58 43.1379Z" fill="#1D2A2D"/>
<path d="M1202.58 172.897C1202.1 188.393 1205.95 203.308 1208.43 218.418C1210.14 228.878 1211.58 239.43 1211.55 250.09C1211.54 251.187 1212.06 252.445 1210.36 253.682C1209.43 251.43 1208.38 249.395 1207.73 247.239C1206.72 243.85 1205.04 244.269 1203.04 246.212C1201.88 247.336 1200.74 248.523 1199.82 249.847C1197.78 252.805 1195.98 252.736 1194.02 249.778C1193 248.243 1192.05 245.42 1190.15 246.166C1188.23 246.919 1189.09 249.818 1188.89 251.849C1187.91 261.719 1187.73 271.667 1186.25 281.493C1185.96 283.412 1185.19 283.995 1183.46 284.714C1174.14 288.584 1164.34 288.417 1154.74 287.521C1146.62 286.757 1138.22 286.817 1130.45 283.255C1127.98 282.124 1127.19 280.798 1127.12 278.334C1126.77 265.78 1125.84 253.241 1126.09 240.675C1126.11 239.669 1126.47 238.458 1125.41 237.831C1124.17 237.087 1123.24 238.241 1122.37 238.827C1120.79 239.902 1119.48 241.374 1117.87 242.402C1116.68 243.168 1115.97 245.822 1114.08 244.25C1112.41 242.869 1110.65 241.473 1111.65 238.317C1117.51 219.667 1121.99 200.731 1123.35 181.118C1123.71 175.753 1122.98 170.516 1122.83 165.213C1122.78 162.643 1124.54 162.763 1126.11 163.249C1131.7 164.965 1135.98 162.385 1140.31 159.389C1143.1 157.461 1145.23 154.196 1149.22 154.436C1152.45 158.308 1156.38 161.335 1160.48 164.238C1165.33 167.689 1169.88 167.691 1174.58 163.966C1176.89 162.137 1178.35 159.371 1181.14 158.094C1183.42 157.252 1184.64 158.717 1185.96 160.179C1189.15 163.692 1193.13 165.01 1197.83 164.37C1203.4 163.607 1203.48 163.709 1203.1 169.483C1203.03 170.639 1203.24 171.845 1202.58 172.915L1202.58 172.897Z" fill="white"/>
<path d="M1178.78 103.818C1169.59 103.22 1160.54 104.163 1151.73 106.812C1148.4 107.82 1147.66 106.577 1147.46 103.687C1146.57 90.4715 1149.25 77.474 1149.87 64.3574C1149.96 62.5967 1150.88 61.7992 1152.6 61.481C1164.02 59.4163 1175.43 59.5091 1186.86 61.2873C1188.23 61.5031 1189.34 62.0084 1189.55 63.7047C1190.98 75.219 1193.18 86.6857 1190.66 98.3456C1189.35 104.427 1189.45 104.45 1183.19 104.053C1181.72 103.957 1180.25 103.896 1178.77 103.817L1178.78 103.818Z" fill="#0F9199"/>
<path d="M1119.48 130.042C1119.39 129.734 1119.44 129.461 1119.63 129.212C1124.27 122.293 1131.16 118.471 1138.65 115.608C1140.4 114.935 1142.54 115.076 1141.23 118.144C1140.33 119.585 1139.26 120.928 1138.31 123.016C1143.76 119.126 1149.3 118.076 1156.24 120.105C1154.31 117.951 1152.46 117.469 1150.95 116.497C1150.15 116.035 1149.25 116.032 1148.39 115.825C1147.17 115.537 1145.31 115.598 1145.41 113.919C1145.48 112.505 1147.2 112.133 1148.5 111.819C1164.26 107.945 1180.06 106.16 1196.03 110.668C1201.56 112.229 1205.82 115.925 1210.46 119.016C1212.21 125.77 1212.71 132.572 1211.26 139.457C1210.34 141.048 1209.24 140.954 1208.08 139.742C1207.58 139.207 1207.23 138.537 1206.94 137.862C1205.05 133.375 1202.37 129.8 1196.92 130.061C1191.15 130.341 1187.02 133.428 1184.25 138.361C1183.09 140.413 1182.39 142.8 1179.49 143.011C1176.44 142.848 1175.05 140.348 1173.27 138.461C1167.87 132.744 1165.03 132.601 1159.04 137.701C1157.3 139.186 1155.91 141.368 1153.18 141.221C1151.62 140.701 1151 139.331 1150.31 138.028C1145.74 129.502 1134.17 126.762 1126.06 132.275C1125.57 132.606 1125.13 133.01 1124.66 133.35C1123.03 134.511 1121.37 137.222 1119.61 136.103C1117.85 134.984 1118.96 132.128 1119.47 130.024L1119.48 130.042Z" fill="white"/>
<path d="M1226.88 219.377C1223.4 209.375 1220.23 199.774 1219.4 189.549C1218.92 183.541 1218.49 177.536 1217.96 171.534C1217.86 170.406 1218.02 169.514 1218.76 168.68C1223.06 163.837 1226.27 158.08 1231.38 153.895C1233.73 151.979 1236.29 150.609 1239.07 151.801C1241.68 152.921 1242.84 155.301 1243.47 158.41C1244.7 164.503 1243.65 170.482 1241.88 175.879C1237.25 190.012 1232.72 204.177 1228.12 218.32C1228.04 218.547 1227.69 218.698 1226.87 219.377L1226.88 219.377Z" fill="#383838"/>
<path d="M1108.99 242.677C1113.07 246.407 1117.25 246.44 1121.52 242.776C1121.93 242.423 1122.4 242.145 1123.21 241.564C1123.54 250.782 1123.77 259.514 1124.16 268.236C1124.53 276.305 1124.93 284.368 1123.98 292.439C1123.78 294.131 1123.27 295.539 1122.26 296.832C1117.92 298.953 1116.1 298.731 1112.66 294.839C1105.41 286.633 1100.71 277.057 1098.09 266.432C1097.1 262.43 1096.38 258.362 1094.95 254.461C1094.47 253.143 1093.64 251.28 1096.21 250.829C1097.78 251.269 1098.68 253.127 1100.58 252.881C1103.88 252.344 1105.41 250.126 1106.5 247.153C1107.06 245.596 1106.48 243.211 1108.97 242.676L1108.99 242.677Z" fill="#FFD70C"/>
<path d="M1196.23 63.5976C1203.55 65.4774 1209.98 68.5758 1215.81 72.828C1217.79 74.2618 1217.77 77.0691 1218.09 79.3598C1219.6 90.0136 1219.81 100.741 1219.65 111.484C1219.63 112.517 1219.56 113.583 1219.28 114.566C1218.75 116.384 1218.45 118.623 1216.46 119.301C1214.27 120.049 1213.72 117.577 1212.56 116.454C1208.48 112.5 1204 109.186 1198.51 107.51C1196.18 106.807 1195.44 106.036 1196.68 103.508C1200.49 95.7237 1199.92 87.491 1198.57 79.2348C1197.76 74.2885 1197.07 69.3217 1196.22 63.6061L1196.23 63.5976Z" fill="#0F9199"/>
<path d="M1193.67 253.415C1194.25 254.106 1194.82 254.796 1195.4 255.486C1197.58 256.779 1199.29 256.078 1200.63 254.179C1201.96 252.28 1203.26 250.352 1204.58 248.453C1207.59 250.396 1207.11 254.115 1208.75 256.752C1212.85 259.183 1215.03 255.67 1217.74 253.818C1220.38 251.721 1220.46 253.776 1220.1 255.478C1219.2 259.789 1218.29 264.135 1216.9 268.305C1213.65 278.125 1209.41 287.491 1203.08 295.774C1197.48 298.381 1192.1 294.973 1190.77 288.163C1189.47 281.478 1190.95 274.897 1191.31 268.284C1191.51 264.612 1192.12 260.981 1191.89 257.26C1191.8 255.883 1191.18 253.799 1193.66 253.423L1193.67 253.415Z" fill="#FFD70C"/>
<path d="M1115.94 130.023C1116.89 131.028 1117 131.925 1116.59 132.447C1111.64 138.779 1113.69 145.986 1114.08 152.925C1114.39 158.361 1115.26 163.775 1114.76 169.222C1113.88 178.963 1116.26 188.63 1115.12 198.411C1114.66 202.381 1114.17 206.206 1112.48 209.851C1107.39 220.776 1102.07 231.609 1098.41 243.146C1097.67 245.496 1096.94 248.407 1093.31 246.065C1091.83 245.112 1091.2 245.89 1091.07 247.434C1090.45 254.587 1091.53 261.607 1093.57 268.376C1095.43 274.564 1098.35 280.435 1100.27 286.608C1101.34 290.044 1103.9 292.65 1104.83 296.177C1098.64 293.457 1091.52 285.071 1088.56 275.739C1085.63 266.507 1084.5 256.89 1087.65 247.466C1089.85 240.914 1093.03 234.719 1096.69 228.79C1106.38 213.056 1112.16 196.158 1112.65 177.462C1112.97 164.535 1110.51 151.824 1110.49 138.95C1110.48 134.982 1113.44 132.796 1115.96 130.033L1115.94 130.023Z" fill="#373838"/>
<path d="M1124.39 73.3549C1130.05 70.2699 1135.62 66.9924 1141.39 65.1432C1140.95 73.3839 1140.76 81.5758 1140 89.719C1139.4 96.0524 1138.17 102.352 1140.3 108.582C1140.96 110.534 1139.71 110.859 1138.53 111.304C1133.96 113.048 1129.77 115.516 1125.59 118.022C1122.2 116.093 1122.76 112.789 1122.85 109.745C1123.23 97.6047 1124.53 85.5139 1124.4 73.3554L1124.39 73.3549Z" fill="#0F9199"/>
<path d="M1108.37 146.958C1103.18 143.846 1101.29 140.116 1100.84 134.886C1099.75 121.731 1100.08 108.635 1100.94 95.5046C1101.12 92.8307 1102.62 91.1455 1104.18 89.4549C1106.46 86.9824 1108.97 84.7272 1111.43 82.3265C1112.83 83.721 1112.19 85.0863 1112 86.2531C1110.23 96.9371 1110.23 107.786 1108.84 118.491C1108.31 122.67 1108.65 126.7 1110.2 130.617C1110.63 131.701 1111.42 132.991 1110.31 133.85C1105.89 137.287 1106.67 141.67 1108.37 146.958Z" fill="#37B9C8"/>
<path d="M1124.39 73.3552C1127.07 74.0335 1125.97 76.177 1125.9 77.7243C1125.39 88.4664 1124.82 99.1963 1124.14 109.929C1123.96 112.799 1124.19 115.495 1125.58 118.03C1123.3 119.843 1121.01 121.646 1118.74 123.46C1117.27 124.638 1116.27 124.335 1116.02 122.458C1115.79 120.708 1115.53 118.911 1115.7 117.172C1116.82 105.099 1118.06 93.0315 1119.21 80.9597C1119.55 77.4296 1121.04 74.79 1124.38 73.3637L1124.39 73.3552Z" fill="#36B9C7"/>
<path d="M1209.31 147.358C1208.78 151.449 1206.87 155.056 1205.26 158.768C1203.44 160.017 1201.51 161.055 1199.47 161.873C1194.41 163.885 1189.88 162.635 1186.68 158.274C1185.64 156.854 1184.48 155.527 1183.56 154.024C1182.97 151.862 1183.62 150.221 1185.61 149.15C1187.57 148.64 1188.93 150.05 1190.51 150.732C1194.27 152.35 1197.11 151.699 1199.61 148.686C1202.11 145.655 1203.04 139.919 1201.43 137.461C1200.42 135.936 1198.94 135.456 1197.21 135.595C1193.02 135.951 1189.5 137.457 1187.43 141.429C1186.4 143.424 1185.43 145.521 1182.55 145.011C1181.63 144.739 1180.8 144.374 1180.81 143.206C1182.23 142.319 1183.17 141.014 1183.81 139.515C1185.93 134.582 1190.13 132.293 1194.9 130.889C1199.25 129.606 1203.69 131.867 1205.95 136.018C1207.89 139.58 1208.09 143.62 1209.32 147.368L1209.31 147.358Z" fill="#FAD8E6"/>
<path d="M1223.02 79.2842C1229.43 83.7277 1228.54 90.0989 1229.62 95.7108C1232.23 109.312 1229.42 122.401 1225.73 135.389C1224.76 138.805 1224.32 139.29 1220.33 141.288C1224.3 138.308 1222.85 134.763 1221.34 131.508C1219.96 128.528 1219.95 126.37 1222.86 124.368C1225.33 122.672 1225.87 120.089 1226.15 117.064C1227.35 104.469 1224.1 92.2688 1223.02 79.2842Z" fill="#0E8F96"/>
<path d="M1210.46 119.026C1208.79 120.247 1208.01 118.511 1207.17 117.815C1200.37 112.237 1192.13 110.78 1183.85 109.571C1170.95 107.696 1158.62 111.032 1145.23 113.668C1148.17 114.975 1150.67 113.825 1152.23 115.852C1148.41 116.878 1144.58 117.824 1140.59 117.789C1141.21 114.728 1139.27 116.363 1138.39 116.699C1132.04 119.151 1126.42 122.737 1121.62 127.607C1121.03 128.217 1120.29 128.686 1119.62 129.221C1119.02 126.167 1121.12 124.656 1123.13 123.141C1136.36 113.141 1151.48 108.359 1167.77 106.724C1177.13 105.78 1186.33 106.592 1195.31 109.248C1201.26 111 1206.78 113.649 1210.46 119.034L1210.46 119.026Z" fill="#B9B9B9"/>
<path d="M1122.11 161.68C1120.48 155.985 1119.09 150.25 1118.87 144.292C1120.45 139.972 1122.49 135.962 1126.26 133.079C1131.8 128.855 1137.74 128.165 1144.02 131.104C1147.1 132.552 1149.06 135.019 1149.73 138.478C1150.18 140.776 1150.07 143.195 1151.26 145.327C1151.47 148.173 1150.79 150.874 1149.92 153.538C1147.38 155.372 1148.34 151.955 1146.94 151.649C1141.51 158.571 1133.9 160.741 1125.39 160.643C1124.12 160.628 1123.2 161.337 1122.1 161.688L1122.11 161.68Z" fill="#FADBE7"/>
<path d="M1096.22 250.82C1095.54 251.275 1095.18 251.906 1095.43 252.695C1099.62 265.515 1101.57 279.224 1110.29 290.246C1113.39 294.156 1116.12 298.58 1122.26 296.823C1119.16 303.192 1113.45 300.925 1109.5 297.505C1107.26 295.558 1105.49 293.083 1104.35 290.365C1099.15 277.883 1093.86 265.404 1092.97 251.636C1092.92 250.92 1093.03 250.187 1093.08 249.413C1094.39 249.475 1095.48 249.738 1096.21 250.82L1096.22 250.82Z" fill="#D9A606"/>
<path d="M1180.68 46.8541C1180.94 47.2244 1182.67 46.8978 1181.39 47.9439C1179.94 49.1321 1178.2 49.8953 1176.32 50.4188C1172.1 51.5932 1168.05 53.1864 1165.18 56.7954C1160.14 57.7296 1155.07 58.5551 1150.05 59.6334C1144.71 60.783 1139.7 63.0474 1134.61 64.9955C1133.43 65.5116 1132.61 65.4323 1132.73 63.8252C1142.44 55.2324 1153.98 51.0529 1166.68 49.9929C1171.54 49.5929 1176.08 48.2041 1180.68 46.8452L1180.68 46.8541Z" fill="#32B6C4"/>
<path d="M1193.67 253.415C1193.38 253.898 1192.78 254.428 1192.85 254.859C1194.36 265.282 1190.18 275.48 1191.89 285.967C1193.11 293.458 1195.3 295.795 1203.09 295.765C1203.01 296.046 1203.01 296.385 1202.85 296.599C1198.67 301.957 1194.55 304.349 1191.6 302.301C1186.97 299.094 1187.1 293.725 1187.82 288.985C1189.22 279.761 1190.16 270.522 1190.7 261.235C1190.84 258.728 1190.97 256.212 1191.18 253.718C1191.25 252.955 1190.77 251.664 1191.96 251.629C1192.51 251.614 1193.11 252.787 1193.68 253.415L1193.67 253.415Z" fill="#D8A606"/>
<path d="M1090.61 230.73C1090.12 228.189 1090.01 225.883 1091.12 223.758C1096.52 213.438 1101.59 202.966 1106.22 192.275C1106.5 191.63 1106.74 190.867 1107.61 190.727C1108.92 198.864 1097.71 224.414 1090.61 230.729L1090.61 230.73Z" fill="#363636"/>
<path d="M1143.34 83.1405C1143.64 77.54 1143.96 71.9404 1144.23 66.3385C1144.31 64.9428 1144.39 63.3515 1146.16 63.5083C1148.38 63.707 1147.09 65.5551 1147.04 66.5863C1146.43 78.3933 1145.11 90.1618 1145.21 101.997C1145.22 103.603 1145.56 105.208 1145.69 106.819C1145.79 108.01 1145.26 108.847 1144 108.976C1142.87 109.094 1142.5 108.183 1142.26 107.341C1141.53 104.77 1141.16 102.138 1141.29 99.4615C1141.56 94.0018 1141.88 88.545 1142.17 83.0778C1142.56 83.0987 1142.96 83.1201 1143.35 83.141L1143.34 83.1405Z" fill="#E77F25"/>
<path d="M1162.5 301.594C1151.13 300.986 1139.76 300.307 1128.38 299.816C1125.2 299.682 1124.71 299.04 1126.13 295.969C1128.49 290.871 1128.26 290.618 1133.48 292.965C1142.8 297.154 1152.71 298.887 1162.78 300.031C1162.69 300.552 1162.6 301.073 1162.51 301.603L1162.5 301.594Z" fill="#373737"/>
<path d="M1150.75 145.139C1149.22 144.897 1149.05 143.845 1149.06 142.535C1149.09 137.437 1147.42 133.389 1142.31 131.307C1136.83 129.08 1131.92 130.457 1127.39 133.648C1124.48 135.694 1122.25 138.455 1121.03 141.911C1120.65 142.969 1120.49 144.325 1118.87 144.292C1118.67 139.529 1117.48 134.714 1119.48 130.042C1119.38 131.802 1119.29 133.554 1119.19 135.376C1121.25 135.816 1121.91 134.193 1122.88 133.345C1132.76 124.645 1145.97 127 1151.77 138.578C1152.24 139.531 1152.71 140.403 1153.7 140.875C1153.71 142.988 1153.32 144.831 1150.75 145.139Z" fill="#FBE7EF"/>
<path d="M1122.11 161.68C1122.51 160.543 1122.13 158.953 1124.25 158.995C1136.59 159.227 1137.97 158.632 1148.16 148.968C1149.24 150.524 1147.8 152.595 1149.18 153.882C1149.4 154.063 1149.49 154.264 1149.44 154.466C1149.38 154.686 1149.32 154.789 1149.26 154.786C1146.16 155.557 1144.03 157.921 1141.62 159.727C1136.68 163.43 1131.8 166.744 1125.25 163.979C1123.93 163.418 1123.39 164.298 1122.83 165.213C1121.7 164.217 1122.41 162.846 1122.1 161.68L1122.11 161.68Z" fill="#FBE7EF"/>
<path d="M1116.94 79.4208C1115.98 89.0424 1115.01 98.4408 1114.12 107.843C1113.57 113.697 1112.44 119.593 1114.73 125.349C1115.54 127.381 1114.17 128.974 1112.88 129.226C1110.87 129.627 1111.12 127.412 1111 126.104C1110.32 118.418 1111.6 110.793 1111.99 103.147C1112.33 96.372 1113.4 89.6355 1114.1 82.8796C1114.26 81.3549 1114.41 79.9097 1116.94 79.4208Z" fill="#E37D24"/>
<path d="M1209.31 147.358C1206.42 146.651 1207.49 143.98 1206.92 142.221C1205.85 138.873 1205.4 135.274 1202.06 133.197C1196.69 129.852 1188.75 132.763 1184.92 139.378C1183.98 141.004 1183.92 143.693 1180.93 143.248C1179.91 143.675 1179.25 143.488 1179.15 142.252C1181.76 142.115 1182.29 140.013 1183.13 138.114C1186.59 130.276 1196.31 126.587 1202.92 130.435C1205.71 132.055 1206.63 134.859 1207.93 137.451C1208.63 138.861 1208.94 140.804 1211.26 139.457C1211.26 142.247 1210.35 144.82 1209.3 147.349L1209.31 147.358Z" fill="#FBE8EF"/>
<path d="M1184.1 153.999C1185.67 154.128 1186.15 155.375 1186.87 156.519C1190.3 161.971 1194.56 163.126 1200.38 160.272C1201.94 159.508 1203.31 158.191 1205.27 158.768C1203.57 163.322 1203.92 168.27 1202.59 172.897C1202.56 172.451 1202.52 172.011 1202.53 171.575C1202.75 165.088 1202.78 165.401 1196.18 165.86C1191.68 166.172 1187.4 164.562 1184.77 160.57C1183.63 158.833 1182.66 158.362 1180.89 159.097C1180.32 156.365 1181.9 154.997 1184.09 153.999L1184.1 153.999Z" fill="#FCECF2"/>
<path d="M1192.65 62.9074C1193.11 63.7341 1193.82 64.5212 1193.99 65.4038C1196.14 77.1619 1199.46 88.9107 1195.01 100.86C1194.75 101.551 1194.54 102.27 1194.16 102.883C1193.58 103.815 1193.27 105.635 1191.89 105.062C1190.09 104.315 1191.85 103.098 1192.13 102.159C1194.78 93.0469 1194.36 83.8599 1193.06 74.6169C1192.53 70.7905 1192.37 66.904 1192.04 63.044C1192.25 62.9927 1192.46 62.9503 1192.66 62.899L1192.65 62.9074Z" fill="#E27D24"/>
<path d="M1223.19 98.3005C1224.43 105.009 1224.6 111.74 1223.48 118.473C1223.27 119.746 1222.78 121.235 1221.9 122.044C1220.93 122.937 1220.35 125.563 1218.23 123.943C1216.09 122.304 1218.05 121.339 1219.12 120.246C1222.78 116.492 1221.22 111.595 1221.89 107.182C1221.98 104.174 1220.77 100.962 1223.19 98.2916L1223.19 98.3005Z" fill="#D97823"/>
<path d="M1108.99 242.677C1107.41 244.42 1107.95 246.811 1107.16 248.855C1105.89 252.14 1104.11 253.693 1100.58 252.872C1103.54 250.347 1104.07 246.229 1106.68 243.507C1107.22 242.948 1107.48 240.813 1108.99 242.668L1108.99 242.677Z" fill="#D3A309"/>
<path d="M1223.19 98.3003C1221.49 101.08 1222.67 104.273 1221.89 107.191C1221.42 99.0794 1220.94 90.9591 1220.46 82.8477C1222.3 87.8846 1222.88 93.0774 1223.19 98.3092L1223.19 98.3003Z" fill="#B5641D"/>
<path d="M1204.58 248.453C1204.3 251.201 1202.61 253.304 1201.11 255.39C1199.47 257.665 1197.34 258.006 1195.4 255.486C1198.56 255.655 1199.42 252.59 1201.44 251.156C1202.57 250.36 1202.82 248.528 1204.58 248.453Z" fill="#CE9F0B"/>
<path d="M1217.74 253.809C1215.07 258.811 1212.41 259.684 1208.75 256.743C1212.26 257.341 1214.48 253.965 1217.74 253.809Z" fill="#D3A308"/>
<path d="M1132.73 63.8251C1133 64.7934 1133.84 64.8381 1134.61 64.9954C1132.34 66.7819 1129.74 67.8911 1126.87 68.6651C1128.51 66.6483 1130.19 64.7322 1132.73 63.8251Z" fill="#03878E"/>
<path d="M1187.31 41.0475C1188.71 40.0702 1190.03 38.9371 1191.52 38.1522C1192.74 37.5126 1193.86 37.6885 1193.42 39.5906C1191.87 40.221 1190.97 42.0185 1189.09 42.0694C1188.76 41.2671 1188 41.2179 1187.31 41.0475Z" fill="#033E41"/>
<path d="M1184.1 154C1183.03 155.699 1181.96 157.398 1180.9 159.098C1177.15 162.882 1174.34 167.983 1167.99 168.063C1166.81 168.08 1165.59 168.443 1164.54 167.834C1158.63 164.461 1152.39 161.462 1149.27 154.796C1149.24 154.491 1149.22 154.196 1149.19 153.891C1148.7 150.789 1149.84 147.988 1150.76 145.14C1151.74 143.722 1152.73 142.294 1153.71 140.876C1156.06 138.87 1158.3 136.735 1160.77 134.897C1165.08 131.686 1168.22 132.041 1172.13 135.726C1174.45 137.928 1176.08 140.885 1179.16 142.262C1179.54 142.969 1180.14 143.295 1180.94 143.258C1181.6 143.56 1182.27 143.873 1182.93 144.175C1184.96 145.416 1188.22 145.982 1185.9 149.621C1184.64 150.811 1184.07 152.287 1184.1 154.009L1184.1 154Z" fill="#16150F"/>
<path d="M1179.42 121.468C1181.69 117.274 1187.48 114.873 1192.75 115.725C1197.15 116.442 1200.05 119.664 1200.68 124.387C1200.78 125.15 1201.05 125.77 1200.15 126.221C1199.56 126.52 1198.96 126.675 1198.6 126.112C1194.03 118.914 1187.37 120.181 1180.66 121.605C1180.4 121.663 1180.11 121.549 1179.42 121.468Z" fill="#171718"/>
<path d="M1140.59 117.78C1144.2 115.504 1148.05 114.693 1152.23 115.844C1152.7 116.813 1153.78 116.506 1154.47 116.935C1156.01 117.9 1158.72 118.803 1158 120.725C1157.08 123.137 1155.13 120.617 1153.64 120.403C1148.52 119.675 1143.78 120.358 1139.49 123.445C1138.63 124.058 1137.65 125.593 1136.54 124.518C1135.27 123.282 1136.95 122.534 1137.7 121.86C1138.98 120.699 1138.48 118.291 1140.6 117.772L1140.59 117.78Z" fill="#161717"/>
<path d="M1185.89 149.611C1186.78 146.761 1184.6 145.602 1182.92 144.166C1185.2 144.582 1185.54 142.728 1186.16 141.308C1188.4 136.114 1192.87 134.686 1197.93 134.26C1199.88 134.097 1201.32 134.968 1202.44 136.517C1204.53 139.428 1203.3 146.529 1200.06 150.038C1197.14 153.216 1193.09 153.776 1189.3 151.514C1188.19 150.848 1187.37 149.628 1185.9 149.594L1185.89 149.611Z" fill="#F7C0D6"/>
<path d="M1123.2 144.586C1123.59 137.118 1129.8 131.512 1137.23 131.909C1143.98 132.27 1147.69 135.793 1147.34 141.516C1146.87 149.22 1140.98 154.344 1133.04 153.955C1125.42 153.584 1122.86 151.147 1123.2 144.586Z" fill="#F8C9DD"/>
<path d="M1167.99 136.191C1170.41 137.426 1172.02 139.554 1173.77 141.493C1175.57 143.478 1177.54 145.162 1179.98 146.291C1183.62 147.974 1183.78 149.444 1180.46 151.701C1178.75 152.867 1176.83 153.522 1174.69 153.523C1171.8 153.53 1169.31 154.627 1167.25 156.683C1165.04 157.679 1163.55 161.023 1160.38 158.964C1157.4 157.022 1156.31 154.119 1156.38 150.62C1156.54 143.264 1161.55 136.979 1167.99 136.182L1167.99 136.191Z" fill="#FFD70D"/>
<path d="M1167.99 136.191C1162.08 139.441 1157.32 143.448 1157.33 151.054C1157.33 153.131 1157.93 154.83 1159.06 156.397C1160.7 158.651 1162.51 160.344 1164.87 157.118C1165.53 156.217 1166.18 155.351 1167.23 156.682C1166.68 157.874 1166.05 159.044 1165.59 160.276C1165.06 161.71 1164.32 162.535 1162.64 162.125C1158.36 161.094 1154.49 159.514 1152.45 155.206C1150.54 151.181 1152.01 147.72 1154.35 144.467C1156.61 141.316 1159.53 138.797 1162.45 136.305C1164.22 134.804 1166.11 134.584 1167.99 136.182L1167.99 136.191Z" fill="#F9F0A0"/>
<path d="M1166.44 164.209C1169.53 157.01 1170.71 156.306 1178.65 156.561C1175.3 163.14 1171.84 165.362 1166.44 164.209Z" fill="#F8D10D"/>
</svg>
