<svg width="64" height="64" viewBox="0 0 64 64" fill="none" xmlns="http://www.w3.org/2000/svg">
<g clip-path="url(#clip0_6052_3184)">
<path d="M47.357 36.7753C47.2323 36.7154 42.5665 34.4179 41.7375 34.1195C41.399 33.998 41.0363 33.8793 40.6507 33.8793C40.0207 33.8793 39.4915 34.1933 39.0792 34.81C38.6131 35.5028 37.2022 37.152 36.7663 37.6448C36.7093 37.7098 36.6317 37.7875 36.5851 37.7875C36.5433 37.7875 35.8212 37.4902 35.6026 37.3953C30.5975 35.2212 26.7985 29.9929 26.2775 29.1113C26.2031 28.9845 26.2 28.927 26.1993 28.927C26.2176 28.8599 26.386 28.6912 26.4728 28.6042C26.727 28.3528 27.0023 28.0213 27.2687 27.7007C27.3948 27.5488 27.5212 27.3967 27.6452 27.2533C28.0317 26.8037 28.2037 26.4545 28.4032 26.0502L28.5077 25.84C28.9948 24.8723 28.5788 24.0558 28.4443 23.792C28.334 23.5714 26.364 18.8167 26.1545 18.3172C25.6507 17.1118 24.9852 16.5505 24.0603 16.5505C23.9745 16.5505 24.0603 16.5505 23.7005 16.5657C23.2622 16.5842 20.8757 16.8983 19.8206 17.5635C18.7016 18.269 16.8086 20.5177 16.8086 24.4724C16.8086 28.0317 19.0673 31.3923 20.0371 32.6704C20.0612 32.7027 20.1055 32.768 20.1697 32.862C23.8836 38.2858 28.5135 42.3054 33.2068 44.1803C37.7253 45.9852 39.865 46.1938 41.0813 46.1938C41.0816 46.1938 41.0816 46.1938 41.0816 46.1938C41.5927 46.1938 42.0018 46.1537 42.3628 46.1182L42.5918 46.0963C44.1527 45.9579 47.583 44.1804 48.3632 42.0122C48.9778 40.3043 49.14 38.4383 48.731 37.7612C48.4508 37.3004 47.9681 37.0687 47.357 36.7753Z" fill="white"/>
<path d="M32.5682 0C15.2349 0 1.13327 13.9956 1.13327 31.1985C1.13327 36.7625 2.62227 42.209 5.44315 46.9757L0.0440242 62.902C-0.0566009 63.1989 0.0182742 63.5272 0.237899 63.7509C0.396524 63.9128 0.611524 64 0.831149 64C0.915274 64 1.00002 63.9874 1.08277 63.9609L17.6895 58.6838C22.2339 61.1118 27.3701 62.3935 32.5683 62.3935C49.8999 62.3938 64 48.3996 64 31.1985C64 13.9956 49.8999 0 32.5682 0ZM32.5682 55.8949C27.6769 55.8949 22.9395 54.4825 18.8672 51.8102C18.7303 51.7202 18.5713 51.6741 18.4113 51.6741C18.3267 51.6741 18.2419 51.687 18.1594 51.7132L9.8404 54.3576L12.5259 46.4347C12.6128 46.1784 12.5693 45.8955 12.4093 45.6769C9.30815 41.4396 7.6689 36.4333 7.6689 31.1985C7.6689 17.5791 18.8385 6.49888 32.5678 6.49888C46.2954 6.49888 57.4638 17.5791 57.4638 31.1985C57.4642 44.8162 46.2959 55.8949 32.5682 55.8949Z" fill="white"/>
</g>
<defs>
<clipPath id="clip0_6052_3184">
<rect width="64" height="64" fill="white"/>
</clipPath>
</defs>
</svg>
